<?xml version="1.0" encoding="utf-8"?>
<!-- Generator: Adobe Illustrator 25.4.1, SVG Export Plug-In . SVG Version: 6.00 Build 0)  -->
<svg version="1.1" id="Camada_1" xmlns="http://www.w3.org/2000/svg" xmlns:xlink="http://www.w3.org/1999/xlink" x="0px" y="0px"
	 viewBox="0 0 140 111" style="enable-background:new 0 0 140 111;" xml:space="preserve">
<style type="text/css">
	.st0{fill:#774537;}
	.st1{fill:#56291E;}
	.st2{fill:#95DBCD;}
	.st3{fill:#6FD1BE;}
</style>
<g>
	<g>
		
			<ellipse transform="matrix(0.1748 -0.9846 0.9846 0.1748 6.7046 110.146)" class="st0" cx="69.06" cy="51.07" rx="47.28" ry="47.28"/>
		<g>
			<path class="st1" d="M30.56,57.97c0.65,0.96,0.39,2.27-0.57,2.92l0,0c-0.96,0.65-2.27,0.39-2.91-0.57l-6.29-9.38
				c-0.65-0.96-0.39-2.27,0.57-2.92l0,0c0.96-0.65,2.27-0.39,2.92,0.57L30.56,57.97z"/>
			<path class="st1" d="M25.14,43.81c-0.22,1.14-1.33,1.88-2.47,1.66l0,0c-1.14-0.22-1.88-1.33-1.65-2.47l2.18-11.08
				c0.22-1.14,1.33-1.88,2.47-1.66l0,0c1.14,0.22,1.88,1.33,1.66,2.47L25.14,43.81z"/>
			<path class="st1" d="M41.15,54.92c1.05,0.49,1.51,1.74,1.02,2.79l0,0c-0.49,1.05-1.74,1.51-2.79,1.02l-10.24-4.76
				c-1.05-0.49-1.51-1.74-1.02-2.79l0,0c0.49-1.05,1.74-1.51,2.79-1.02L41.15,54.92z"/>
			<path class="st1" d="M38.9,47.07c1.05,0.49,1.51,1.74,1.02,2.79l0,0c-0.49,1.05-1.74,1.51-2.79,1.02l-10.24-4.76
				c-1.05-0.49-1.51-1.74-1.02-2.79l0,0c0.49-1.05,1.74-1.51,2.79-1.02L38.9,47.07z"/>
			<path class="st1" d="M31.59,38.83c-0.04,1.16-1.01,2.07-2.17,2.02l0,0c-1.16-0.04-2.07-1.01-2.03-2.17l0.4-11.29
				c0.04-1.16,1.01-2.07,2.17-2.02l0,0c1.16,0.04,2.07,1.01,2.03,2.17L31.59,38.83z"/>
			<path class="st1" d="M32.83,23.71c-0.79,0.85-2.12,0.9-2.97,0.11l0,0c-0.85-0.79-0.9-2.12-0.11-2.97l7.7-8.27
				c0.79-0.85,2.12-0.9,2.97-0.11l0,0c0.85,0.79,0.9,2.12,0.11,2.97L32.83,23.71z"/>
			<path class="st1" d="M56.38,56.72c1.05,0.49,1.51,1.74,1.02,2.79l0,0c-0.49,1.05-1.74,1.51-2.79,1.02l-10.24-4.76
				c-1.05-0.49-1.51-1.74-1.02-2.79l0,0c0.49-1.05,1.74-1.51,2.79-1.02L56.38,56.72z"/>
			<path class="st1" d="M45.98,47.23c0.65,0.96,0.39,2.27-0.57,2.92l0,0c-0.96,0.65-2.27,0.39-2.92-0.57l-6.29-9.38
				c-0.65-0.96-0.39-2.27,0.57-2.92l0,0c0.96-0.65,2.27-0.39,2.92,0.57L45.98,47.23z"/>
			<path class="st1" d="M38.43,32.89c-0.39,1.09-1.59,1.66-2.69,1.27l0,0c-1.09-0.39-1.66-1.59-1.27-2.69l3.81-10.64
				c0.39-1.09,1.59-1.66,2.69-1.27l0,0c1.09,0.39,1.66,1.59,1.27,2.69L38.43,32.89z"/>
			<path class="st1" d="M67.49,54.92c1.05,0.49,1.51,1.74,1.02,2.79l0,0c-0.49,1.05-1.74,1.51-2.79,1.02l-10.24-4.76
				c-1.05-0.49-1.51-1.74-1.02-2.79l0,0c0.49-1.05,1.74-1.51,2.79-1.02L67.49,54.92z"/>
			<path class="st1" d="M46.3,13.39c-1,0.58-2.29,0.24-2.87-0.76l0,0c-0.58-1-0.24-2.29,0.76-2.87l9.77-5.67
				c1-0.58,2.29-0.24,2.87,0.76l0,0c0.58,1,0.24,2.29-0.76,2.87L46.3,13.39z"/>
			<path class="st1" d="M48.24,28.19c-0.04,1.16-1.01,2.07-2.17,2.03l0,0c-1.16-0.04-2.07-1.01-2.03-2.17l0.4-11.29
				c0.04-1.16,1.01-2.07,2.17-2.02l0,0c1.16,0.04,2.07,1.01,2.03,2.17L48.24,28.19z"/>
			<path class="st1" d="M60.94,42.21c1.04-0.51,2.3-0.09,2.81,0.96l0,0c0.51,1.04,0.08,2.3-0.96,2.81l-10.13,4.99
				c-1.04,0.51-2.3,0.08-2.81-0.96l0,0c-0.51-1.04-0.09-2.3,0.96-2.81L60.94,42.21z"/>
			<path class="st1" d="M51.76,41.95c0.73,0.9,0.6,2.22-0.3,2.96l0,0c-0.9,0.73-2.22,0.6-2.96-0.3l-7.14-8.75
				c-0.73-0.9-0.6-2.22,0.3-2.96l0,0c0.9-0.73,2.22-0.6,2.96,0.3L51.76,41.95z"/>
			<path class="st1" d="M52.51,34.73c-0.33,1.11-1.5,1.75-2.61,1.41l0,0c-1.11-0.33-1.74-1.5-1.41-2.61l3.23-10.83
				c0.33-1.11,1.5-1.74,2.61-1.41l0,0c1.11,0.33,1.74,1.5,1.41,2.61L52.51,34.73z"/>
			<path class="st1" d="M64.12,33.12c0.99-0.61,2.28-0.29,2.89,0.7l0,0c0.6,0.99,0.29,2.28-0.7,2.89l-9.64,5.89
				c-0.99,0.61-2.28,0.29-2.89-0.7l0,0c-0.61-0.99-0.29-2.28,0.7-2.89L64.12,33.12z"/>
			<path class="st1" d="M58.16,34.06c-0.6,0.99-1.89,1.31-2.89,0.71l0,0c-0.99-0.6-1.31-1.89-0.71-2.89l5.85-9.66
				c0.6-0.99,1.89-1.31,2.88-0.71l0,0c0.99,0.6,1.31,1.89,0.71,2.89L58.16,34.06z"/>
			<path class="st1" d="M75.96,56.12c0.73,0.9,0.6,2.22-0.3,2.96l0,0c-0.9,0.73-2.22,0.6-2.96-0.3l-7.14-8.75
				c-0.73-0.9-0.6-2.22,0.3-2.96l0,0c0.9-0.73,2.22-0.6,2.96,0.3L75.96,56.12z"/>
			<path class="st1" d="M77.1,47.64c0.73,0.9,0.6,2.22-0.3,2.96l0,0c-0.9,0.73-2.22,0.6-2.96-0.3l-7.14-8.75
				c-0.73-0.9-0.6-2.22,0.3-2.96l0,0c0.9-0.73,2.22-0.6,2.96,0.3L77.1,47.64z"/>
			<path class="st1" d="M88.88,49.41c1.04-0.51,2.3-0.08,2.81,0.96l0,0c0.51,1.04,0.09,2.3-0.96,2.81L80.6,58.18
				c-1.04,0.51-2.3,0.08-2.81-0.96l0,0c-0.51-1.04-0.08-2.3,0.96-2.81L88.88,49.41z"/>
			<path class="st1" d="M90.98,42.21c1.04-0.51,2.3-0.09,2.81,0.96l0,0c0.51,1.04,0.09,2.3-0.96,2.81l-10.13,4.99
				c-1.04,0.51-2.3,0.08-2.81-0.96l0,0c-0.51-1.04-0.09-2.3,0.96-2.81L90.98,42.21z"/>
			<path class="st1" d="M102.78,63.77c0.73,0.9,0.6,2.22-0.3,2.96l0,0c-0.9,0.73-2.22,0.6-2.96-0.3l-7.14-8.75
				c-0.73-0.9-0.6-2.22,0.3-2.96l0,0c0.9-0.73,2.22-0.6,2.96,0.3L102.78,63.77z"/>
			<path class="st1" d="M105.43,57.3c0.73,0.9,0.6,2.22-0.3,2.96l0,0c-0.9,0.73-2.22,0.6-2.96-0.3l-7.14-8.75
				c-0.73-0.9-0.6-2.22,0.3-2.96l0,0c0.9-0.73,2.22-0.6,2.96,0.3L105.43,57.3z"/>
			<path class="st1" d="M117.55,56.72c1.05,0.49,1.51,1.74,1.02,2.79l0,0c-0.49,1.05-1.74,1.51-2.79,1.02l-10.24-4.76
				c-1.05-0.49-1.51-1.74-1.02-2.79l0,0c0.49-1.05,1.74-1.51,2.79-1.02L117.55,56.72z"/>
			<path class="st1" d="M113.77,46.01c0.22,1.14,1.33,1.88,2.47,1.66l0,0c1.14-0.22,1.88-1.33,1.66-2.47l-2.18-11.08
				c-0.22-1.14-1.33-1.88-2.47-1.66l0,0c-1.14,0.22-1.88,1.33-1.66,2.47L113.77,46.01z"/>
			<path class="st1" d="M99.09,17.78c0.9,0.73,2.22,0.6,2.96-0.3l0,0c0.73-0.9,0.6-2.22-0.3-2.96l-8.76-7.13
				c-0.9-0.73-2.22-0.6-2.96,0.3l0,0c-0.73,0.9-0.6,2.22,0.3,2.96L99.09,17.78z"/>
			<path class="st1" d="M86.48,9.13c1.12,0.29,2.27-0.39,2.56-1.51l0,0c0.29-1.12-0.39-2.27-1.51-2.56L76.58,2.24
				c-1.12-0.29-2.27,0.39-2.56,1.51l0,0c-0.29,1.12,0.39,2.27,1.51,2.56L86.48,9.13z"/>
			<path class="st1" d="M117.49,50.83c1.06,0.48,1.53,1.72,1.05,2.78l0,0c-0.48,1.06-1.72,1.53-2.78,1.06l-10.3-4.63
				c-1.06-0.48-1.53-1.72-1.06-2.78l0,0c0.48-1.06,1.72-1.53,2.78-1.06L117.49,50.83z"/>
			<path class="st1" d="M79.32,38.36c0.73,0.9,0.6,2.22-0.3,2.96l0,0c-0.9,0.73-2.22,0.6-2.96-0.3l-7.14-8.75
				c-0.73-0.9-0.6-2.22,0.3-2.96l0,0c0.9-0.73,2.22-0.6,2.96,0.3L79.32,38.36z"/>
			<path class="st1" d="M68.05,27.95c-0.73,0.9-2.06,1.04-2.96,0.3l0,0c-0.9-0.73-1.04-2.06-0.3-2.96l7.13-8.76
				c0.73-0.9,2.06-1.04,2.96-0.3l0,0c0.9,0.73,1.04,2.05,0.3,2.96L68.05,27.95z"/>
			<path class="st1" d="M53.81,17.27c-1,0.59-2.29,0.26-2.88-0.74l0,0c-0.59-1-0.26-2.29,0.74-2.88l9.72-5.76
				c1-0.59,2.29-0.26,2.88,0.74l0,0c0.59,1,0.26,2.29-0.73,2.88L53.81,17.27z"/>
			<path class="st1" d="M59.76,7.2c-1.15,0.13-2.19-0.7-2.32-1.86l0,0c-0.13-1.15,0.7-2.19,1.86-2.32l11.23-1.24
				c1.15-0.13,2.19,0.7,2.32,1.86l0,0c0.13,1.15-0.7,2.19-1.86,2.32L59.76,7.2z"/>
			<path class="st1" d="M109.02,31.24c0.63,0.97,1.93,1.25,2.91,0.61l0,0c0.97-0.63,1.25-1.93,0.61-2.91l-6.17-9.47
				c-0.63-0.97-1.94-1.25-2.91-0.61l0,0c-0.97,0.63-1.25,1.93-0.61,2.91L109.02,31.24z"/>
			<path class="st1" d="M63.3,18.41c-1.03,0.54-2.3,0.15-2.84-0.88l0,0c-0.54-1.03-0.15-2.3,0.88-2.84l10-5.26
				c1.03-0.54,2.3-0.15,2.84,0.88l0,0c0.54,1.03,0.15,2.3-0.88,2.84L63.3,18.41z"/>
			<path class="st1" d="M77.81,13.71c-1.09-0.4-1.65-1.6-1.25-2.69l0,0c0.4-1.09,1.6-1.65,2.7-1.25l10.61,3.88
				c1.09,0.4,1.65,1.61,1.25,2.69l0,0c-0.4,1.09-1.6,1.65-2.69,1.25L77.81,13.71z"/>
			<path class="st1" d="M92.78,20.12c-0.84-0.8-0.88-2.13-0.08-2.97l0,0c0.8-0.84,2.13-0.88,2.97-0.08l8.21,7.76
				c0.84,0.8,0.88,2.13,0.09,2.97l0,0c-0.8,0.84-2.13,0.88-2.97,0.09L92.78,20.12z"/>
			<path class="st1" d="M103.36,32.22c-0.37-1.1,0.23-2.29,1.33-2.66l0,0c1.1-0.37,2.29,0.23,2.66,1.33l3.58,10.72
				c0.37,1.1-0.23,2.29-1.33,2.66l0,0c-1.1,0.37-2.29-0.23-2.66-1.33L103.36,32.22z"/>
			<path class="st1" d="M98.79,35.26c-0.03-1.16,0.89-2.12,2.05-2.15l0,0c1.16-0.03,2.12,0.89,2.15,2.05l0.26,11.29
				c0.03,1.16-0.89,2.12-2.05,2.15l0,0c-1.16,0.03-2.12-0.89-2.15-2.05L98.79,35.26z"/>
			<path class="st1" d="M98.32,29.91c0.73,0.9,0.6,2.22-0.3,2.96l0,0c-0.9,0.73-2.22,0.6-2.96-0.3l-7.14-8.75
				c-0.73-0.9-0.6-2.22,0.3-2.96l0,0c0.9-0.73,2.22-0.6,2.96,0.3L98.32,29.91z"/>
			<path class="st1" d="M88.44,25.29c0.73,0.9,0.6,2.22-0.3,2.96l0,0c-0.9,0.73-2.22,0.6-2.96-0.3l-7.14-8.75
				c-0.73-0.9-0.6-2.22,0.3-2.96l0,0c0.9-0.73,2.22-0.6,2.96,0.3L88.44,25.29z"/>
			<path class="st1" d="M92.41,34.44c1.03-0.53,2.3-0.13,2.83,0.9l0,0c0.53,1.03,0.13,2.3-0.9,2.83L84.3,43.36
				c-1.03,0.53-2.3,0.13-2.83-0.9l0,0c-0.53-1.03-0.13-2.3,0.9-2.83L92.41,34.44z"/>
			<path class="st1" d="M85,32.51c0.73,0.9,0.6,2.22-0.3,2.96l0,0c-0.9,0.73-2.22,0.6-2.96-0.3l-7.14-8.75
				c-0.73-0.9-0.6-2.22,0.3-2.96l0,0c0.9-0.73,2.22-0.6,2.96,0.3L85,32.51z"/>
			<path class="st1" d="M113.77,59.14c0.22-1.14,1.33-1.88,2.47-1.66l0,0c1.14,0.22,1.88,1.33,1.66,2.47l-2.18,11.08
				c-0.22,1.14-1.33,1.88-2.47,1.66l0,0c-1.14-0.22-1.88-1.33-1.66-2.47L113.77,59.14z"/>
			<path class="st1" d="M100.01,55.88c-1.05-0.49-1.51-1.74-1.02-2.79l0,0c0.49-1.05,1.74-1.51,2.79-1.02l10.24,4.76
				c1.05,0.49,1.51,1.74,1.02,2.79l0,0c-0.49,1.05-1.74,1.51-2.79,1.02L100.01,55.88z"/>
			<path class="st1" d="M107.32,64.12c0.04-1.16,1.01-2.07,2.17-2.02l0,0c1.16,0.04,2.07,1.01,2.03,2.17l-0.4,11.29
				c-0.04,1.16-1.01,2.07-2.17,2.02l0,0c-1.16-0.04-2.07-1.01-2.03-2.17L107.32,64.12z"/>
			<path class="st1" d="M106.08,79.24c0.79-0.85,2.12-0.9,2.97-0.11l0,0c0.85,0.79,0.9,2.12,0.11,2.97l-7.7,8.27
				c-0.79,0.85-2.12,0.9-2.97,0.11l0,0c-0.85-0.79-0.9-2.12-0.11-2.97L106.08,79.24z"/>
			<path class="st1" d="M100.48,70.07c0.39-1.09,1.59-1.66,2.69-1.27l0,0c1.09,0.39,1.66,1.59,1.27,2.69l-3.81,10.64
				c-0.39,1.09-1.59,1.66-2.69,1.27l0,0c-1.09-0.39-1.66-1.59-1.27-2.69L100.48,70.07z"/>
			<path class="st1" d="M92.61,89.56c1-0.58,2.29-0.24,2.87,0.76l0,0c0.58,1,0.24,2.29-0.76,2.87l-9.77,5.67
				c-1,0.58-2.29,0.24-2.87-0.76l0,0c-0.58-1-0.24-2.29,0.76-2.87L92.61,89.56z"/>
			<path class="st1" d="M90.67,74.76c0.04-1.16,1.01-2.07,2.17-2.03l0,0c1.16,0.04,2.07,1.01,2.03,2.17l-0.4,11.29
				c-0.04,1.16-1.01,2.07-2.17,2.02l0,0c-1.16-0.04-2.07-1.01-2.03-2.17L90.67,74.76z"/>
			<path class="st1" d="M87.15,61c-0.73-0.9-0.6-2.22,0.3-2.96l0,0c0.9-0.73,2.22-0.6,2.96,0.3l7.14,8.75
				c0.73,0.9,0.6,2.22-0.3,2.96l0,0c-0.9,0.73-2.22,0.6-2.96-0.3L87.15,61z"/>
			<path class="st1" d="M86.4,68.22c0.33-1.11,1.5-1.75,2.61-1.41l0,0c1.11,0.33,1.74,1.5,1.41,2.61L87.2,80.24
				c-0.33,1.11-1.5,1.75-2.61,1.41l0,0c-1.11-0.33-1.75-1.5-1.41-2.61L86.4,68.22z"/>
			<path class="st1" d="M73.85,68.79c-0.99,0.61-2.28,0.29-2.89-0.7l0,0c-0.6-0.99-0.29-2.28,0.7-2.89l9.64-5.89
				c0.99-0.61,2.28-0.29,2.89,0.7l0,0c0.61,0.99,0.29,2.28-0.7,2.89L73.85,68.79z"/>
			<path class="st1" d="M80.75,68.89c0.6-0.99,1.89-1.31,2.89-0.71l0,0c0.99,0.6,1.31,1.89,0.71,2.89l-5.86,9.66
				c-0.6,0.99-1.89,1.31-2.88,0.71l0,0c-0.99-0.6-1.31-1.89-0.71-2.89L80.75,68.89z"/>
			<path class="st1" d="M25.14,56.94c-0.22-1.14-1.33-1.88-2.47-1.66l0,0c-1.14,0.22-1.88,1.33-1.65,2.47l2.18,11.08
				c0.22,1.14,1.33,1.88,2.47,1.66l0,0c1.14-0.22,1.88-1.33,1.66-2.47L25.14,56.94z"/>
			<path class="st1" d="M39.82,85.17c-0.9-0.73-2.22-0.6-2.96,0.3l0,0c-0.73,0.9-0.6,2.22,0.3,2.96l8.76,7.13
				c0.9,0.73,2.22,0.6,2.96-0.3l0,0c0.73-0.9,0.6-2.22-0.3-2.96L39.82,85.17z"/>
			<path class="st1" d="M52.43,93.83c-1.12-0.29-2.27,0.39-2.56,1.51l0,0c-0.29,1.12,0.39,2.27,1.51,2.56l10.94,2.81
				c1.12,0.29,2.27-0.39,2.56-1.51l0,0c0.29-1.12-0.39-2.27-1.51-2.56L52.43,93.83z"/>
			<path class="st1" d="M59.59,64.6c-0.73-0.9-0.6-2.22,0.3-2.96l0,0c0.9-0.73,2.22-0.6,2.96,0.3l7.14,8.75
				c0.73,0.9,0.6,2.22-0.3,2.96l0,0c-0.9,0.73-2.22,0.6-2.96-0.3L59.59,64.6z"/>
			<path class="st1" d="M70.86,75c0.73-0.9,2.06-1.04,2.96-0.3l0,0c0.9,0.73,1.04,2.05,0.3,2.96l-7.13,8.76
				c-0.73,0.9-2.06,1.04-2.96,0.3l0,0c-0.9-0.73-1.04-2.06-0.3-2.96L70.86,75z"/>
			<path class="st1" d="M85.1,85.68c1-0.59,2.29-0.26,2.88,0.74l0,0c0.59,1,0.26,2.29-0.74,2.88l-9.72,5.76
				c-1,0.59-2.29,0.26-2.88-0.74l0,0c-0.59-1-0.26-2.29,0.73-2.88L85.1,85.68z"/>
			<path class="st1" d="M79.15,95.75c1.15-0.13,2.19,0.7,2.32,1.86l0,0c0.13,1.15-0.7,2.19-1.86,2.32l-11.23,1.24
				c-1.15,0.13-2.19-0.7-2.32-1.86l0,0c-0.13-1.15,0.7-2.19,1.86-2.32L79.15,95.75z"/>
			<path class="st1" d="M29.89,71.71c-0.63-0.97-1.93-1.25-2.91-0.61l0,0c-0.97,0.63-1.25,1.93-0.61,2.91l6.17,9.47
				c0.63,0.97,1.93,1.25,2.91,0.61l0,0c0.97-0.63,1.25-1.93,0.61-2.91L29.89,71.71z"/>
			<path class="st1" d="M75.61,84.54c1.03-0.54,2.3-0.15,2.84,0.88l0,0c0.54,1.03,0.15,2.3-0.88,2.84l-10,5.26
				c-1.03,0.54-2.3,0.14-2.84-0.88l0,0c-0.54-1.03-0.15-2.3,0.88-2.84L75.61,84.54z"/>
			<path class="st1" d="M61.1,89.25c1.09,0.4,1.65,1.6,1.25,2.69l0,0c-0.4,1.09-1.6,1.65-2.69,1.25l-10.61-3.88
				c-1.09-0.4-1.65-1.6-1.25-2.69l0,0c0.4-1.09,1.6-1.65,2.69-1.25L61.1,89.25z"/>
			<path class="st1" d="M46.13,82.83c0.84,0.8,0.88,2.13,0.08,2.97l0,0c-0.8,0.84-2.12,0.88-2.97,0.09l-8.21-7.76
				c-0.84-0.8-0.88-2.13-0.08-2.97l0,0c0.8-0.84,2.13-0.88,2.97-0.09L46.13,82.83z"/>
			<path class="st1" d="M35.55,70.73c0.37,1.1-0.23,2.29-1.33,2.66l0,0c-1.1,0.37-2.29-0.23-2.66-1.33l-3.58-10.72
				c-0.37-1.1,0.23-2.29,1.33-2.66l0,0c1.1-0.37,2.29,0.23,2.66,1.33L35.55,70.73z"/>
			<path class="st1" d="M40.59,73.04c-0.73-0.9-0.6-2.22,0.3-2.96l0,0c0.9-0.73,2.22-0.6,2.96,0.3l7.14,8.75
				c0.73,0.9,0.6,2.22-0.3,2.96l0,0c-0.9,0.73-2.22,0.6-2.96-0.3L40.59,73.04z"/>
			<path class="st1" d="M50.47,77.66c-0.73-0.9-0.6-2.22,0.3-2.96l0,0c0.9-0.73,2.22-0.6,2.96,0.3l7.14,8.75
				c0.73,0.9,0.6,2.22-0.3,2.96l0,0c-0.9,0.73-2.22,0.6-2.96-0.3L50.47,77.66z"/>
			<path class="st1" d="M40.75,66.32c-1.16,0.04-2.13-0.88-2.16-2.04l0,0c-0.03-1.16,0.88-2.13,2.04-2.16l11.29-0.34
				c1.16-0.04,2.13,0.88,2.16,2.04l0,0c0.04,1.16-0.88,2.13-2.04,2.16L40.75,66.32z"/>
			<path class="st1" d="M53.91,70.45c-0.73-0.9-0.6-2.22,0.3-2.96l0,0c0.9-0.73,2.22-0.6,2.96,0.3l7.14,8.75
				c0.73,0.9,0.6,2.22-0.3,2.96l0,0c-0.9,0.73-2.22,0.6-2.96-0.3L53.91,70.45z"/>
		</g>
	</g>
	<g>
		<polygon class="st2" points="114.19,59.39 105.27,54.6 96.36,59.39 87.44,54.6 78.53,59.39 69.62,54.6 60.71,59.39 51.8,54.6 
			42.89,59.39 33.98,54.6 25.07,59.39 16.19,54.6 18.63,62.13 36.9,110.07 69.63,110.07 102.36,110.07 120.63,62.13 123,54.6 		"/>
		<polygon class="st3" points="25.07,59.39 40.33,110.07 36.9,110.07 16.19,54.6 		"/>
		<polygon class="st3" points="33.98,54.6 46.42,110.07 50.79,110.07 42.89,59.39 		"/>
		<polygon class="st3" points="51.8,54.6 58.03,110.07 61.64,110.07 60.71,59.39 		"/>
		<polygon class="st3" points="69.62,54.6 69.62,110.07 76.86,110.07 78.53,59.39 		"/>
		<polygon class="st3" points="87.44,54.6 83.33,110.07 87.1,110.07 96.36,59.39 		"/>
		<polygon class="st3" points="105.27,54.6 93.8,110.07 97.99,110.07 114.19,59.39 		"/>
	</g>
</g>
</svg>
