<?xml version="1.0" encoding="utf-8"?>
<!-- Generator: Adobe Illustrator 25.4.1, SVG Export Plug-In . SVG Version: 6.00 Build 0)  -->
<svg version="1.1" id="Camada_1" xmlns="http://www.w3.org/2000/svg" xmlns:xlink="http://www.w3.org/1999/xlink" x="0px" y="0px"
	 viewBox="0 0 106.8 111" style="enable-background:new 0 0 106.8 111;" xml:space="preserve">
<style type="text/css">
	.st0{fill:#774537;}
	.st1{fill:#56291E;}
	.st2{fill:#95DBCD;}
	.st3{fill:#6FD1BE;}
</style>
<g>
	<g>
		<ellipse class="st0" cx="52.9" cy="51.1" rx="47.3" ry="47.3"/>
		<g>
			<path class="st1" d="M14.4,58c0.6,1,0.4,2.3-0.6,2.9l0,0c-1,0.7-2.3,0.4-2.9-0.6l-6.3-9.4C4,50,4.2,48.7,5.2,48l0,0
				c1-0.7,2.3-0.4,2.9,0.6L14.4,58z"/>
			<path class="st1" d="M8.9,43.8c-0.2,1.1-1.3,1.9-2.5,1.7l0,0c-1.1-0.2-1.9-1.3-1.6-2.5L7,31.9c0.2-1.1,1.3-1.9,2.5-1.7l0,0
				c1.1,0.2,1.9,1.3,1.7,2.5L8.9,43.8z"/>
			<path class="st1" d="M25,54.9c1,0.5,1.5,1.7,1,2.8l0,0c-0.5,1-1.7,1.5-2.8,1L13,54c-1-0.5-1.5-1.7-1-2.8l0,0c0.5-1,1.7-1.5,2.8-1
				L25,54.9z"/>
			<path class="st1" d="M22.7,47.1c1,0.5,1.5,1.7,1,2.8l0,0c-0.5,1-1.7,1.5-2.8,1l-10.2-4.8c-1-0.5-1.5-1.7-1-2.8l0,0
				c0.5-1,1.7-1.5,2.8-1L22.7,47.1z"/>
			<path class="st1" d="M15.4,38.8c0,1.2-1,2.1-2.2,2l0,0c-1.2,0-2.1-1-2-2.2l0.4-11.3c0-1.2,1-2.1,2.2-2l0,0c1.2,0,2.1,1,2,2.2
				L15.4,38.8z"/>
			<path class="st1" d="M16.6,23.7c-0.8,0.9-2.1,0.9-3,0.1l0,0c-0.9-0.8-0.9-2.1-0.1-3l7.7-8.3c0.8-0.9,2.1-0.9,3-0.1l0,0
				c0.8,0.8,0.9,2.1,0.1,3L16.6,23.7z"/>
			<path class="st1" d="M40.2,56.7c1,0.5,1.5,1.7,1,2.8l0,0c-0.5,1-1.7,1.5-2.8,1l-10.2-4.8c-1-0.5-1.5-1.7-1-2.8l0,0
				c0.5-1,1.7-1.5,2.8-1L40.2,56.7z"/>
			<path class="st1" d="M29.8,47.2c0.7,1,0.4,2.3-0.6,2.9l0,0c-1,0.7-2.3,0.4-2.9-0.6L20,40.2c-0.7-1-0.4-2.3,0.6-2.9l0,0
				c1-0.7,2.3-0.4,2.9,0.6L29.8,47.2z"/>
			<path class="st1" d="M22.2,32.9c-0.4,1.1-1.6,1.7-2.7,1.3l0,0c-1.1-0.4-1.7-1.6-1.3-2.7l3.8-10.6c0.4-1.1,1.6-1.7,2.7-1.3l0,0
				c1.1,0.4,1.7,1.6,1.3,2.7L22.2,32.9z"/>
			<path class="st1" d="M51.3,54.9c1.1,0.5,1.5,1.7,1,2.8l0,0c-0.5,1-1.7,1.5-2.8,1L39.3,54c-1-0.5-1.5-1.7-1-2.8l0,0
				c0.5-1,1.7-1.5,2.8-1L51.3,54.9z"/>
			<path class="st1" d="M30.1,13.4c-1,0.6-2.3,0.2-2.9-0.8l0,0c-0.6-1-0.2-2.3,0.8-2.9l9.8-5.7c1-0.6,2.3-0.2,2.9,0.8l0,0
				c0.6,1,0.2,2.3-0.8,2.9L30.1,13.4z"/>
			<path class="st1" d="M32.1,28.2c0,1.2-1,2.1-2.2,2l0,0c-1.2,0-2.1-1-2-2.2l0.4-11.3c0-1.2,1-2.1,2.2-2l0,0c1.2,0,2.1,1,2,2.2
				L32.1,28.2z"/>
			<path class="st1" d="M44.8,42.2c1-0.5,2.3-0.1,2.8,1l0,0c0.5,1,0.1,2.3-1,2.8l-10.1,5c-1,0.5-2.3,0.1-2.8-1l0,0
				c-0.5-1-0.1-2.3,1-2.8L44.8,42.2z"/>
			<path class="st1" d="M35.6,42c0.7,0.9,0.6,2.2-0.3,3l0,0c-0.9,0.7-2.2,0.6-3-0.3l-7.1-8.8c-0.7-0.9-0.6-2.2,0.3-3l0,0
				c0.9-0.7,2.2-0.6,3,0.3L35.6,42z"/>
			<path class="st1" d="M36.3,34.7c-0.3,1.1-1.5,1.8-2.6,1.4l0,0c-1.1-0.3-1.7-1.5-1.4-2.6l3.2-10.8c0.3-1.1,1.5-1.7,2.6-1.4l0,0
				c1.1,0.3,1.7,1.5,1.4,2.6L36.3,34.7z"/>
			<path class="st1" d="M47.9,33.1c1-0.6,2.3-0.3,2.9,0.7l0,0c0.6,1,0.3,2.3-0.7,2.9l-9.6,5.9c-1,0.6-2.3,0.3-2.9-0.7l0,0
				c-0.6-1-0.3-2.3,0.7-2.9L47.9,33.1z"/>
			<path class="st1" d="M42,34.1c-0.6,1-1.9,1.3-2.9,0.7l0,0c-1-0.6-1.3-1.9-0.7-2.9l5.8-9.7c0.6-1,1.9-1.3,2.9-0.7l0,0
				c1,0.6,1.3,1.9,0.7,2.9L42,34.1z"/>
			<path class="st1" d="M59.8,56.1c0.7,0.9,0.6,2.2-0.3,3l0,0c-0.9,0.7-2.2,0.6-3-0.3L49.4,50c-0.7-0.9-0.6-2.2,0.3-3l0,0
				c0.9-0.7,2.2-0.6,3,0.3L59.8,56.1z"/>
			<path class="st1" d="M60.9,47.6c0.7,0.9,0.6,2.2-0.3,3l0,0c-0.9,0.7-2.2,0.6-3-0.3l-7.1-8.8c-0.7-0.9-0.6-2.2,0.3-3l0,0
				c0.9-0.7,2.2-0.6,3,0.3L60.9,47.6z"/>
			<path class="st1" d="M72.7,49.4c1-0.5,2.3-0.1,2.8,1l0,0c0.5,1,0.1,2.3-1,2.8l-10.1,5c-1,0.5-2.3,0.1-2.8-1l0,0
				c-0.5-1-0.1-2.3,1-2.8L72.7,49.4z"/>
			<path class="st1" d="M74.8,42.2c1-0.5,2.3-0.1,2.8,1l0,0c0.5,1,0.1,2.3-1,2.8l-10.1,5c-1,0.5-2.3,0.1-2.8-1l0,0
				c-0.5-1-0.1-2.3,1-2.8L74.8,42.2z"/>
			<path class="st1" d="M86.6,63.8c0.7,0.9,0.6,2.2-0.3,3l0,0c-0.9,0.7-2.2,0.6-3-0.3l-7.1-8.8c-0.7-0.9-0.6-2.2,0.3-3l0,0
				c0.9-0.7,2.2-0.6,3,0.3L86.6,63.8z"/>
			<path class="st1" d="M89.2,57.3c0.7,0.9,0.6,2.2-0.3,3l0,0C88,61,86.7,60.9,86,60l-7.1-8.8c-0.7-0.9-0.6-2.2,0.3-3l0,0
				c0.9-0.7,2.2-0.6,3,0.3L89.2,57.3z"/>
			<path class="st1" d="M101.4,56.7c1.1,0.5,1.5,1.7,1,2.8l0,0c-0.5,1-1.7,1.5-2.8,1l-10.2-4.8c-1.1-0.5-1.5-1.7-1-2.8l0,0
				c0.5-1,1.7-1.5,2.8-1L101.4,56.7z"/>
			<path class="st1" d="M97.6,46c0.2,1.1,1.3,1.9,2.5,1.7l0,0c1.1-0.2,1.9-1.3,1.7-2.5l-2.2-11.1c-0.2-1.1-1.3-1.9-2.5-1.7l0,0
				c-1.1,0.2-1.9,1.3-1.7,2.5L97.6,46z"/>
			<path class="st1" d="M82.9,17.8c0.9,0.7,2.2,0.6,3-0.3l0,0c0.7-0.9,0.6-2.2-0.3-3l-8.8-7.1c-0.9-0.7-2.2-0.6-3,0.3l0,0
				c-0.7,0.9-0.6,2.2,0.3,3L82.9,17.8z"/>
			<path class="st1" d="M70.3,9.1c1.1,0.3,2.3-0.4,2.6-1.5l0,0c0.3-1.1-0.4-2.3-1.5-2.6L60.4,2.2c-1.1-0.3-2.3,0.4-2.6,1.5l0,0
				c-0.3,1.1,0.4,2.3,1.5,2.6L70.3,9.1z"/>
			<path class="st1" d="M101.3,50.8c1.1,0.5,1.5,1.7,1.1,2.8l0,0c-0.5,1.1-1.7,1.5-2.8,1.1L89.3,50c-1.1-0.5-1.5-1.7-1.1-2.8l0,0
				c0.5-1.1,1.7-1.5,2.8-1.1L101.3,50.8z"/>
			<path class="st1" d="M63.1,38.4c0.7,0.9,0.6,2.2-0.3,3l0,0c-0.9,0.7-2.2,0.6-3-0.3l-7.1-8.8c-0.7-0.9-0.6-2.2,0.3-3l0,0
				c0.9-0.7,2.2-0.6,3,0.3L63.1,38.4z"/>
			<path class="st1" d="M51.9,28c-0.7,0.9-2.1,1-3,0.3l0,0c-0.9-0.7-1-2.1-0.3-3l7.1-8.8c0.7-0.9,2.1-1,3-0.3l0,0c0.9,0.7,1,2,0.3,3
				L51.9,28z"/>
			<path class="st1" d="M37.6,17.3c-1,0.6-2.3,0.3-2.9-0.7l0,0c-0.6-1-0.3-2.3,0.7-2.9l9.7-5.8c1-0.6,2.3-0.3,2.9,0.7l0,0
				c0.6,1,0.3,2.3-0.7,2.9L37.6,17.3z"/>
			<path class="st1" d="M43.6,7.2c-1.2,0.1-2.2-0.7-2.3-1.9l0,0c-0.1-1.2,0.7-2.2,1.9-2.3l11.2-1.2c1.2-0.1,2.2,0.7,2.3,1.9l0,0
				C56.8,4.8,56,5.8,54.8,6L43.6,7.2z"/>
			<path class="st1" d="M92.8,31.2c0.6,1,1.9,1.2,2.9,0.6l0,0c1-0.6,1.2-1.9,0.6-2.9l-6.2-9.5c-0.6-1-1.9-1.2-2.9-0.6l0,0
				c-1,0.6-1.2,1.9-0.6,2.9L92.8,31.2z"/>
			<path class="st1" d="M47.1,18.4c-1,0.5-2.3,0.1-2.8-0.9l0,0c-0.5-1-0.2-2.3,0.9-2.8l10-5.3c1-0.5,2.3-0.1,2.8,0.9l0,0
				c0.5,1,0.2,2.3-0.9,2.8L47.1,18.4z"/>
			<path class="st1" d="M61.6,13.7c-1.1-0.4-1.7-1.6-1.2-2.7l0,0c0.4-1.1,1.6-1.6,2.7-1.2l10.6,3.9c1.1,0.4,1.7,1.6,1.2,2.7l0,0
				c-0.4,1.1-1.6,1.6-2.7,1.2L61.6,13.7z"/>
			<path class="st1" d="M76.6,20.1c-0.8-0.8-0.9-2.1-0.1-3l0,0c0.8-0.8,2.1-0.9,3-0.1l8.2,7.8c0.8,0.8,0.9,2.1,0.1,3l0,0
				c-0.8,0.8-2.1,0.9-3,0.1L76.6,20.1z"/>
			<path class="st1" d="M87.2,32.2c-0.4-1.1,0.2-2.3,1.3-2.7l0,0c1.1-0.4,2.3,0.2,2.7,1.3l3.6,10.7c0.4,1.1-0.2,2.3-1.3,2.7l0,0
				c-1.1,0.4-2.3-0.2-2.7-1.3L87.2,32.2z"/>
			<path class="st1" d="M82.6,35.3c0-1.2,0.9-2.1,2.1-2.2l0,0c1.2,0,2.1,0.9,2.2,2l0.3,11.3c0,1.2-0.9,2.1-2.1,2.2l0,0
				c-1.2,0-2.1-0.9-2.2-2L82.6,35.3z"/>
			<path class="st1" d="M82.1,29.9c0.7,0.9,0.6,2.2-0.3,3l0,0c-0.9,0.7-2.2,0.6-3-0.3l-7.1-8.8c-0.7-0.9-0.6-2.2,0.3-3l0,0
				c0.9-0.7,2.2-0.6,3,0.3L82.1,29.9z"/>
			<path class="st1" d="M72.2,25.3c0.7,0.9,0.6,2.2-0.3,3l0,0C71,29,69.7,28.9,69,28l-7.1-8.8c-0.7-0.9-0.6-2.2,0.3-3l0,0
				c0.9-0.7,2.2-0.6,3,0.3L72.2,25.3z"/>
			<path class="st1" d="M76.2,34.4c1-0.5,2.3-0.1,2.8,0.9l0,0c0.5,1,0.1,2.3-0.9,2.8l-10,5.2c-1,0.5-2.3,0.1-2.8-0.9l0,0
				c-0.5-1-0.1-2.3,0.9-2.8L76.2,34.4z"/>
			<path class="st1" d="M68.8,32.5c0.7,0.9,0.6,2.2-0.3,3l0,0c-0.9,0.7-2.2,0.6-3-0.3l-7.1-8.8c-0.7-0.9-0.6-2.2,0.3-3l0,0
				c0.9-0.7,2.2-0.6,3,0.3L68.8,32.5z"/>
			<path class="st1" d="M97.6,59.1c0.2-1.1,1.3-1.9,2.5-1.7l0,0c1.1,0.2,1.9,1.3,1.7,2.5L99.5,71c-0.2,1.1-1.3,1.9-2.5,1.7l0,0
				c-1.1-0.2-1.9-1.3-1.7-2.5L97.6,59.1z"/>
			<path class="st1" d="M83.8,55.9c-1.1-0.5-1.5-1.7-1-2.8l0,0c0.5-1,1.7-1.5,2.8-1l10.2,4.8c1.1,0.5,1.5,1.7,1,2.8l0,0
				c-0.5,1-1.7,1.5-2.8,1L83.8,55.9z"/>
			<path class="st1" d="M91.1,64.1c0-1.2,1-2.1,2.2-2l0,0c1.2,0,2.1,1,2,2.2l-0.4,11.3c0,1.2-1,2.1-2.2,2l0,0c-1.2,0-2.1-1-2-2.2
				L91.1,64.1z"/>
			<path class="st1" d="M89.9,79.2c0.8-0.8,2.1-0.9,3-0.1l0,0c0.8,0.8,0.9,2.1,0.1,3l-7.7,8.3c-0.8,0.8-2.1,0.9-3,0.1l0,0
				c-0.8-0.8-0.9-2.1-0.1-3L89.9,79.2z"/>
			<path class="st1" d="M84.3,70.1c0.4-1.1,1.6-1.7,2.7-1.3l0,0c1.1,0.4,1.7,1.6,1.3,2.7l-3.8,10.6c-0.4,1.1-1.6,1.7-2.7,1.3l0,0
				c-1.1-0.4-1.7-1.6-1.3-2.7L84.3,70.1z"/>
			<path class="st1" d="M76.4,89.6c1-0.6,2.3-0.2,2.9,0.8l0,0c0.6,1,0.2,2.3-0.8,2.9l-9.8,5.7c-1,0.6-2.3,0.2-2.9-0.8l0,0
				c-0.6-1-0.2-2.3,0.8-2.9L76.4,89.6z"/>
			<path class="st1" d="M74.5,74.8c0-1.2,1-2.1,2.2-2l0,0c1.2,0,2.1,1,2,2.2l-0.4,11.3c0,1.2-1,2.1-2.2,2l0,0c-1.2,0-2.1-1-2-2.2
				L74.5,74.8z"/>
			<path class="st1" d="M71,61c-0.7-0.9-0.6-2.2,0.3-3l0,0c0.9-0.7,2.2-0.6,3,0.3l7.1,8.7c0.7,0.9,0.6,2.2-0.3,3l0,0
				c-0.9,0.7-2.2,0.6-3-0.3L71,61z"/>
			<path class="st1" d="M70.2,68.2c0.3-1.1,1.5-1.8,2.6-1.4l0,0c1.1,0.3,1.7,1.5,1.4,2.6L71,80.2c-0.3,1.1-1.5,1.8-2.6,1.4l0,0
				c-1.1-0.3-1.8-1.5-1.4-2.6L70.2,68.2z"/>
			<path class="st1" d="M57.7,68.8c-1,0.6-2.3,0.3-2.9-0.7l0,0c-0.6-1-0.3-2.3,0.7-2.9l9.6-5.9c1-0.6,2.3-0.3,2.9,0.7l0,0
				c0.6,1,0.3,2.3-0.7,2.9L57.7,68.8z"/>
			<path class="st1" d="M64.6,68.9c0.6-1,1.9-1.3,2.9-0.7l0,0c1,0.6,1.3,1.9,0.7,2.9l-5.9,9.7c-0.6,1-1.9,1.3-2.9,0.7l0,0
				c-1-0.6-1.3-1.9-0.7-2.9L64.6,68.9z"/>
			<path class="st1" d="M8.9,56.9c-0.2-1.1-1.3-1.9-2.5-1.7l0,0c-1.1,0.2-1.9,1.3-1.6,2.5L7,68.8c0.2,1.1,1.3,1.9,2.5,1.7l0,0
				c1.1-0.2,1.9-1.3,1.7-2.5L8.9,56.9z"/>
			<path class="st1" d="M23.6,85.2c-0.9-0.7-2.2-0.6-3,0.3l0,0c-0.7,0.9-0.6,2.2,0.3,3l8.8,7.1c0.9,0.7,2.2,0.6,3-0.3l0,0
				c0.7-0.9,0.6-2.2-0.3-3L23.6,85.2z"/>
			<path class="st1" d="M36.2,93.8c-1.1-0.3-2.3,0.4-2.6,1.5l0,0c-0.3,1.1,0.4,2.3,1.5,2.6l10.9,2.8c1.1,0.3,2.3-0.4,2.6-1.5l0,0
				c0.3-1.1-0.4-2.3-1.5-2.6L36.2,93.8z"/>
			<path class="st1" d="M43.4,64.6c-0.7-0.9-0.6-2.2,0.3-3l0,0c0.9-0.7,2.2-0.6,3,0.3l7.1,8.8c0.7,0.9,0.6,2.2-0.3,3l0,0
				c-0.9,0.7-2.2,0.6-3-0.3L43.4,64.6z"/>
			<path class="st1" d="M54.7,75c0.7-0.9,2.1-1,3-0.3l0,0c0.9,0.7,1,2.1,0.3,3l-7.1,8.8c-0.7,0.9-2.1,1-3,0.3l0,0
				c-0.9-0.7-1-2.1-0.3-3L54.7,75z"/>
			<path class="st1" d="M68.9,85.7c1-0.6,2.3-0.3,2.9,0.7l0,0c0.6,1,0.3,2.3-0.7,2.9l-9.7,5.8c-1,0.6-2.3,0.3-2.9-0.7l0,0
				c-0.6-1-0.3-2.3,0.7-2.9L68.9,85.7z"/>
			<path class="st1" d="M63,95.8c1.2-0.1,2.2,0.7,2.3,1.9l0,0c0.1,1.2-0.7,2.2-1.9,2.3l-11.2,1.2c-1.2,0.1-2.2-0.7-2.3-1.9l0,0
				c-0.1-1.2,0.7-2.2,1.9-2.3L63,95.8z"/>
			<path class="st1" d="M13.7,71.7c-0.6-1-1.9-1.2-2.9-0.6l0,0c-1,0.6-1.2,1.9-0.6,2.9l6.2,9.5c0.6,1,1.9,1.2,2.9,0.6l0,0
				c1-0.6,1.2-1.9,0.6-2.9L13.7,71.7z"/>
			<path class="st1" d="M59.4,84.5c1-0.5,2.3-0.2,2.8,0.9l0,0c0.5,1,0.2,2.3-0.9,2.8l-10,5.3c-1,0.5-2.3,0.1-2.8-0.9l0,0
				c-0.5-1-0.2-2.3,0.9-2.8L59.4,84.5z"/>
			<path class="st1" d="M44.9,89.2c1.1,0.4,1.7,1.6,1.2,2.7l0,0c-0.4,1.1-1.6,1.7-2.7,1.2l-10.6-3.9c-1.1-0.4-1.7-1.6-1.3-2.7l0,0
				c0.4-1.1,1.6-1.7,2.7-1.2L44.9,89.2z"/>
			<path class="st1" d="M29.9,82.8c0.8,0.8,0.9,2.1,0.1,3l0,0c-0.8,0.8-2.1,0.9-3,0.1l-8.2-7.8c-0.8-0.8-0.9-2.1-0.1-3l0,0
				c0.8-0.8,2.1-0.9,3-0.1L29.9,82.8z"/>
			<path class="st1" d="M19.4,70.7c0.4,1.1-0.2,2.3-1.3,2.7l0,0c-1.1,0.4-2.3-0.2-2.7-1.3l-3.6-10.7c-0.4-1.1,0.2-2.3,1.3-2.7l0,0
				c1.1-0.4,2.3,0.2,2.7,1.3L19.4,70.7z"/>
			<path class="st1" d="M24.4,73c-0.7-0.9-0.6-2.2,0.3-3l0,0c0.9-0.7,2.2-0.6,3,0.3l7.1,8.8c0.7,0.9,0.6,2.2-0.3,3l0,0
				c-0.9,0.7-2.2,0.6-3-0.3L24.4,73z"/>
			<path class="st1" d="M34.3,77.7c-0.7-0.9-0.6-2.2,0.3-3l0,0c0.9-0.7,2.2-0.6,3,0.3l7.1,8.8c0.7,0.9,0.6,2.2-0.3,3l0,0
				c-0.9,0.7-2.2,0.6-3-0.3L34.3,77.7z"/>
			<path class="st1" d="M24.6,66.3c-1.2,0-2.1-0.9-2.2-2l0,0c0-1.2,0.9-2.1,2-2.2l11.3-0.3c1.2,0,2.1,0.9,2.2,2l0,0
				c0,1.2-0.9,2.1-2,2.2L24.6,66.3z"/>
			<path class="st1" d="M37.7,70.4c-0.7-0.9-0.6-2.2,0.3-3l0,0c0.9-0.7,2.2-0.6,3,0.3l7.1,8.8c0.7,0.9,0.6,2.2-0.3,3l0,0
				c-0.9,0.7-2.2,0.6-3-0.3L37.7,70.4z"/>
		</g>
	</g>
	<g>
		<polygon class="st2" points="98,59.4 89.1,54.6 80.2,59.4 71.2,54.6 62.3,59.4 53.4,54.6 44.5,59.4 35.6,54.6 26.7,59.4 
			17.8,54.6 8.9,59.4 0,54.6 2.4,62.1 20.7,110.1 53.4,110.1 86.2,110.1 104.4,62.1 106.8,54.6 		"/>
		<polygon class="st3" points="8.9,59.4 24.1,110.1 20.7,110.1 0,54.6 		"/>
		<polygon class="st3" points="17.8,54.6 30.2,110.1 34.6,110.1 26.7,59.4 		"/>
		<polygon class="st3" points="35.6,54.6 41.8,110.1 45.4,110.1 44.5,59.4 		"/>
		<polygon class="st3" points="53.4,54.6 53.4,110.1 60.7,110.1 62.3,59.4 		"/>
		<polygon class="st3" points="71.2,54.6 67.1,110.1 70.9,110.1 80.2,59.4 		"/>
		<polygon class="st3" points="89.1,54.6 77.6,110.1 81.8,110.1 98,59.4 		"/>
	</g>
</g>
</svg>
