<?xml version="1.0" encoding="utf-8"?>
<!-- Generator: Adobe Illustrator 25.4.1, SVG Export Plug-In . SVG Version: 6.00 Build 0)  -->
<svg version="1.1" id="Camada_1" xmlns="http://www.w3.org/2000/svg" xmlns:xlink="http://www.w3.org/1999/xlink" x="0px" y="0px"
	 viewBox="0 0 106.8 111" style="enable-background:new 0 0 106.8 111;" xml:space="preserve">
<style type="text/css">
	.st0{fill:#8D5B3A;}
	.st1{fill:#F9D498;}
	.st2{fill:#FBCFD0;}
	.st3{fill:#F4B5B8;}
</style>
<g>
	<g>
		<ellipse class="st0" cx="53.6" cy="60.7" rx="47.3" ry="47.3"/>
	</g>
	<g>
		<g>
			<path class="st1" d="M27.1,29.9c-3.1-3.6-7.4-4.7-9.4-2.3s-2,7.1,0,10.5c2,3.4,6.3,4.4,9.4,2.3C30.3,38.3,30.3,33.6,27.1,29.9z"
				/>
		</g>
		<g>
			<path class="st1" d="M9.4,40c1.7-2,4.1-2.2,5.4-0.5c1.2,1.7,0.8,5.8-1,9C11.9,51.6,9,54,7.3,53.8c-1.8-0.2-2.7-2.6-2.1-5.3
				C5.8,45.8,7.7,41.9,9.4,40z"/>
		</g>
		<g>
			<path class="st1" d="M7.9,55.9c-2.1,0-3.4,3.2-3,7.1c0.5,3.9,3.4,7.8,6.4,8.6c3.1,0.8,4.4-2.4,3-7.1C12.9,59.8,10,55.9,7.9,55.9z
				"/>
		</g>
		<g>
			<path class="st1" d="M14.8,60.5c-0.7-3.3-0.1-8.4,1.3-11.3c1.4-3,4.3-5.2,6.4-4.9c2.1,0.3,1.5,5.4-1.3,11.4
				C18.4,61.6,15.5,63.8,14.8,60.5z"/>
		</g>
		<g>
			<path class="st1" d="M30.2,51.2c-2.5-4.3-2.3-9.7,0.3-11.9c2.7-2.2,7.4-2.2,10.5,0c3.1,2.2,2.9,7.6-0.3,11.9S32.7,55.6,30.2,51.2
				z"/>
		</g>
		<g>
			<path class="st1" d="M30.7,55.5c-2.4-3.6-6.5-2.1-9.1,3.3s-4.4,12.7-4,16.2c0.4,3.5,4.5,2,9.1-3.3C31.3,66.4,33.1,59.1,30.7,55.5
				z"/>
		</g>
		<g>
			<path class="st1" d="M12.2,84.7c-3.2-6-3.1-10.2,0.3-9.3c3.4,0.8,7.1,4.1,8.3,7.4s1,7.4-0.3,9.3S15.4,90.6,12.2,84.7z"/>
		</g>
		<g>
			<path class="st1" d="M23.4,88c-1.2-4,1-11,4.8-15.6c3.8-4.6,8.9-6.2,11.2-3.6c2.3,2.6,0.2,9.6-4.8,15.6S24.6,92,23.4,88z"/>
		</g>
		<g>
			<path class="st1" d="M32.1,95.8c-4.9-2.8-9.5-3.5-10.3-1.4c-0.8,2.1,2.1,5.5,6.4,7.6s9,2.7,10.3,1.4
				C39.8,102,36.9,98.6,32.1,95.8z"/>
		</g>
		<g>
			<path class="st1" d="M36.1,96.9c-3.3-2.6-3.6-7.1-0.7-9.9c3-2.8,8.2-3.3,11.6-1.1c3.4,2.2,3.7,6.7,0.7,9.9
				C44.6,99,39.4,99.5,36.1,96.9z"/>
		</g>
		<g>
			<path class="st1" d="M48.9,109.7c-7.1-0.9-10.7-4.1-8-7.2c2.7-3.1,7.9-4.6,11.6-3.5c3.7,1.1,7.2,4.3,8,7.2
				C61.2,109,56,110.6,48.9,109.7z"/>
		</g>
		<g>
			<path class="st1" d="M62.4,104.4c0.7,2.4,3.3,3.7,5.7,2.8c2.4-0.9,6.7-3.4,9.5-5.5c2.8-2.1,3.4-4.8,1.3-5.8S72,95.3,68.1,97
				C64.2,98.7,61.6,102,62.4,104.4z"/>
		</g>
		<g>
			<path class="st1" d="M51.2,92.8c-0.5,2.1,1.1,4.4,3.6,5.1s8.3-0.4,13-2.5s7.5-4.9,6.5-6.3c-1.1-1.4-6.4-1.9-12-1.3
				C56.7,88.4,51.8,90.7,51.2,92.8z"/>
		</g>
		<g>
			<path class="st1" d="M42.7,74.7c-1.7,2.2-0.2,5.9,3.4,8.3c3.6,2.3,9.3,3.9,12.6,3.4s5.5-2.4,4.9-4.2c-0.6-1.9-4.8-5.2-9.4-7.5
				C49.6,72.4,44.5,72.4,42.7,74.7z"/>
		</g>
		<g>
			<path class="st1" d="M37.9,56.7c-1.9,2.8-1.4,7.5,1.1,10.5s6.3,4.1,8.5,2.7c2.2-1.5,1.7-6.2-1.1-10.5
				C43.7,55.1,39.8,53.9,37.9,56.7z"/>
		</g>
		<g>
			<path class="st1" d="M45.1,55.5c-1.7-3.3-1.5-8.1,0.4-10.7s5.8-3.4,8.8-1.8c2.9,1.6,4.5,5.6,3.5,8.9c-1,3.3-3.6,6.8-5.7,7.8
				C49.8,60.8,46.7,58.8,45.1,55.5z"/>
		</g>
		<g>
			<path class="st1" d="M55.2,66.6c-3.3-1.8-3.3-5,0-6.9c3.3-2,7.2-2.3,8.6-0.7c1.5,1.6,1.5,4.7,0,6.9
				C62.4,68.1,58.5,68.4,55.2,66.6z"/>
		</g>
		<g>
			<path class="st1" d="M61.9,70.1c-5.3-2.2-11.1-1.5-12.8,1.4c0,0,0,0,1,0.1s1,0.1,1,0.1c8.8,4.1,17.1,6.2,18.3,4.8
				C70.5,75.1,67.2,72.2,61.9,70.1z"/>
		</g>
		<g>
			<path class="st1" d="M70.1,86.1c-2.5-2.2-3.4-5.3-1.8-6.9c1.6-1.6,4.5-1.2,6.6,0.7c2.1,1.9,2.9,5.1,1.8,6.9
				C75.6,88.7,72.6,88.4,70.1,86.1z"/>
		</g>
		<g>
			<path class="st1" d="M79.9,94.9c-1.8-1.8-0.6-7,2.8-11.6s8.4-7.4,11.1-6.2c2.8,1.2,3.5,4.6,1.7,7.6c-1.8,3-5.3,7.2-7.7,9.4
				C85.2,96.3,81.7,96.7,79.9,94.9z"/>
		</g>
		<g>
			<path class="st1" d="M95,76.7c-2-1.4-2.3-5.2-0.6-8.6s4.4-5.7,6.1-5.3c1.7,0.4,1.9,4.3,0.6,8.6C99.7,75.7,97,78,95,76.7z"/>
		</g>
		<g>
			<path class="st1" d="M87.2,76.9c-3.5,3.6-8.4,4.7-10.9,2.5c-2.5-2.2-2.2-6.7,0.9-10c3-3.3,7.9-4.4,10.9-2.5
				C91.1,68.9,90.7,73.4,87.2,76.9z"/>
		</g>
		<g>
			<path class="st1" d="M67.1,69.5c-2.5-1.4-2.5-5.3,0-8.6c2.5-3.3,7-4.5,10-2.7s3.1,5.6,0,8.6C74.1,69.7,69.5,70.9,67.1,69.5z"/>
		</g>
		<g>
			<path class="st1" d="M85.5,57.1c-1.5,2.6-0.7,6.3,1.7,8.2c2.4,2,6.1,1.5,8.1-1c2-2.5,1.2-6.2-1.7-8.2C90.6,54,87,54.5,85.5,57.1z
				"/>
		</g>
		<g>
			<path class="st1" d="M100.9,60.7c-1.1,0-2.7-2.9-3.4-6.4c-0.8-3.5-0.5-7,0.7-7.7c1.2-0.7,2.8,2.2,3.4,6.4
				C102.3,57.2,102,60.7,100.9,60.7z"/>
		</g>
		<g>
			<path class="st1" d="M89.4,52.4c3.8,3,5.8,1.4,4.6-3.5c-1.2-4.9-4.3-7.3-6.8-5.4C84.7,45.4,85.7,49.4,89.4,52.4z"/>
		</g>
		<g>
			<path class="st1" d="M92.4,40.4c2.1,3.7,4.6,5.7,5.7,4.5s0.8-4.7-0.7-7.7c-1.5-3-4.1-5-5.7-4.5S90.4,36.7,92.4,40.4z"/>
		</g>
		<g>
			<path class="st1" d="M75.1,55.7c3.1,2.8,6.8,3.4,8.3,1.4c1.5-2,0.9-5.7-1.4-8.2c-2.3-2.5-6-3.2-8.3-1.4
				C71.4,49.2,72,52.9,75.1,55.7z"/>
		</g>
		<g>
			<path class="st1" d="M63.9,56.3c0.9,1.2,3,1.2,4.6,0s1.6-3.9,0-6.2s-3.9-4.3-5.1-4.5c-1.2-0.2-2.9,2-3.6,4.8
				c-0.8,2.8-0.5,4.8,0.5,4.5C61.3,54.5,63,55.2,63.9,56.3z"/>
		</g>
		<g>
			<path class="st1" d="M28.3,28.1C25.6,24.1,25,20,27,18.9c2-1.1,4.8,1.6,6.2,6c1.5,4.4,2.1,8.5,1.3,9.2C33.8,34.7,31,32,28.3,28.1
				z"/>
		</g>
		<g>
			<path class="st1" d="M39.1,12.9c-4,1.3-5.9,6.2-4.2,10.9s5.8,4.7,9.1,0c3.3-4.7,5.2-9.6,4.2-10.9C47.2,11.6,43.1,11.6,39.1,12.9z
				"/>
		</g>
		<g>
			<path class="st1" d="M42.1,38.8c-2.4-1.8-2.3-6.2,0.2-9.8c2.5-3.5,6.8-4.9,9.6-3s2.7,6.2-0.2,9.8C48.7,39.2,44.4,40.6,42.1,38.8z
				"/>
		</g>
		<g>
			<path class="st1" d="M54.8,42.3c-1.6-1.3-1-5.6,1.4-9.6c2.4-4,7.3-5.1,10.8-2.4s4.3,7,1.8,9.6c-2.5,2.6-6.1,4.8-7.8,4.8
				S56.4,43.6,54.8,42.3z"/>
		</g>
		<g>
			<path class="st1" d="M67,47.1c-0.8-0.6,1.3-3.5,4.7-6.4c3.4-2.9,6.9-4.2,7.8-2.9s-1.2,4.1-4.7,6.4C71.3,46.4,67.8,47.7,67,47.1z"
				/>
		</g>
		<g>
			<path class="st1" d="M81.9,43.1c-0.7-0.9,0.1-2.7,1.8-4s3.9-1.9,4.9-1.2s0.2,2.5-1.8,4C84.8,43.4,82.6,44,81.9,43.1z"/>
		</g>
		<g>
			<path class="st1" d="M77.9,34.9c1.7,2,5,2.3,7.2,0.6c2.2-1.7,5.1-3.8,6.3-4.6s0.2-3.3-2.3-5.5s-6.8-1.8-9.4,0.9
				C77,29,76.2,32.9,77.9,34.9z"/>
		</g>
		<g>
			<path class="st1" d="M69.3,30.2c1.6,1.6,4.9,0.2,7.6-3.1c2.6-3.2,2.8-7.4,0.5-9.1s-5.7-0.4-7.6,3.1C68,24.5,67.8,28.6,69.3,30.2z
				"/>
		</g>
		<g>
			<path class="st1" d="M62.9,16.8c3.8,0.9,7.8,0.6,8.8-0.7c1.1-1.3-1.8-2.8-6.3-3.4C61,12,57,12.3,56.7,13.3
				C56.3,14.3,59.2,15.9,62.9,16.8z"/>
		</g>
		<g>
			<path class="st1" d="M52,11.5c-1.6,0-2.5,1.2-1.9,2.7c0.6,1.5,1.9,2.7,2.9,2.7c1.1,0,1.9-1.2,1.9-2.7S53.6,11.5,52,11.5z"/>
		</g>
		<g>
			<path class="st1" d="M52,25.2c-2.2-2.1-3.3-4.6-2.5-5.4c0.8-0.8,2.4-1.5,3.5-1.5s2.9,1.3,4,2.9c1.1,1.6,1.3,4,0.4,5.4
				C56.7,28,54.2,27.3,52,25.2z"/>
		</g>
		<g>
			<path class="st1" d="M63.2,17.8c-3.6-1.6-5.2,0.6-3.5,4.7c1.7,4.2,4.7,5.4,6.6,2.9C68.3,22.7,66.9,19.3,63.2,17.8z"/>
		</g>
	</g>
</g>
<g>
	<polygon class="st2" points="98,59.3 89.1,54.5 80.2,59.3 71.2,54.5 62.3,59.3 53.4,54.5 44.5,59.3 35.6,54.5 26.7,59.3 17.8,54.5 
		8.9,59.3 0,54.5 2.4,62 20.7,109.9 53.4,109.9 86.2,109.9 104.4,62 106.8,54.5 	"/>
	<g>
		<polygon class="st3" points="8.9,59.3 24.1,109.9 20.7,109.9 0,54.5 		"/>
		<polygon class="st3" points="17.8,54.5 30.2,109.9 34.6,109.9 26.7,59.3 		"/>
		<polygon class="st3" points="35.6,54.5 41.8,109.9 45.4,109.9 44.5,59.3 		"/>
		<polygon class="st3" points="53.4,54.5 53.4,109.9 60.7,109.9 62.3,59.3 		"/>
		<polygon class="st3" points="71.2,54.5 67.1,109.9 70.9,109.9 80.2,59.3 		"/>
		<polygon class="st3" points="89.1,54.5 77.6,109.9 81.8,109.9 98,59.3 		"/>
	</g>
</g>
</svg>
