<?xml version="1.0" encoding="utf-8"?>
<!-- Generator: Adobe Illustrator 25.4.1, SVG Export Plug-In . SVG Version: 6.00 Build 0)  -->
<svg version="1.1" id="Camada_1" xmlns="http://www.w3.org/2000/svg" xmlns:xlink="http://www.w3.org/1999/xlink" x="0px" y="0px"
	 viewBox="0 0 140 111" style="enable-background:new 0 0 140 111;" xml:space="preserve">
<style type="text/css">
	.st0{fill:#8D5B3A;}
	.st1{fill:#F9D498;}
	.st2{fill:#FBCFD0;}
	.st3{fill:#F4B5B8;}
</style>
<g>
	<g>
		
			<ellipse transform="matrix(0.0643 -0.9979 0.9979 0.0643 4.7129 126.4771)" class="st0" cx="69.8" cy="60.73" rx="47.28" ry="47.28"/>
	</g>
	<g>
		<g>
			<path class="st1" d="M43.34,29.94c-3.14-3.64-7.39-4.66-9.44-2.26c-2.05,2.4-2.05,7.11,0,10.46c2.05,3.36,6.29,4.37,9.44,2.26
				C46.48,38.29,46.48,33.58,43.34,29.94z"/>
		</g>
		<g>
			<path class="st1" d="M25.56,39.95c1.7-1.99,4.11-2.19,5.35-0.46c1.25,1.74,0.8,5.76-1,8.95c-1.8,3.18-4.7,5.6-6.44,5.37
				c-1.75-0.23-2.69-2.63-2.09-5.33C21.99,45.77,23.87,41.93,25.56,39.95z"/>
		</g>
		<g>
			<path class="st1" d="M24.11,55.9c-2.1,0-3.43,3.2-2.98,7.11c0.46,3.91,3.36,7.77,6.44,8.59c3.08,0.82,4.42-2.38,2.98-7.11
				C29.11,59.77,26.21,55.9,24.11,55.9z"/>
		</g>
		<g>
			<path class="st1" d="M30.94,60.5c-0.72-3.27-0.13-8.38,1.31-11.35c1.44-2.98,4.34-5.17,6.43-4.87c2.1,0.3,1.51,5.41-1.31,11.36
				C34.56,61.58,31.66,63.77,30.94,60.5z"/>
		</g>
		<g>
			<path class="st1" d="M46.39,51.23c-2.5-4.35-2.34-9.72,0.35-11.94c2.69-2.21,7.41-2.21,10.49,0c3.08,2.21,2.92,7.59-0.35,11.94
				C53.61,55.58,48.89,55.58,46.39,51.23z"/>
		</g>
		<g>
			<path class="st1" d="M46.89,55.51c-2.37-3.6-6.45-2.09-9.07,3.35c-2.62,5.44-4.41,12.73-3.98,16.2c0.43,3.48,4.51,1.97,9.07-3.35
				C47.47,66.4,49.26,59.11,46.89,55.51z"/>
		</g>
		<g>
			<path class="st1" d="M28.38,84.67c-3.24-5.96-3.12-10.15,0.27-9.32c3.4,0.83,7.11,4.14,8.26,7.36c1.15,3.22,1.03,7.41-0.27,9.32
				C35.34,93.94,31.62,90.63,28.38,84.67z"/>
		</g>
		<g>
			<path class="st1" d="M39.63,88c-1.2-3.99,0.97-11.01,4.8-15.58c3.83-4.58,8.88-6.21,11.2-3.63c2.33,2.58,0.17,9.59-4.8,15.58
				C45.86,90.36,40.82,92,39.63,88z"/>
		</g>
		<g>
			<path class="st1" d="M48.26,95.75c-4.86-2.84-9.51-3.46-10.33-1.38c-0.82,2.09,2.06,5.5,6.39,7.58c4.33,2.08,8.98,2.7,10.33,1.37
				C56,102,53.12,98.59,48.26,95.75z"/>
		</g>
		<g>
			<path class="st1" d="M52.27,96.9c-3.34-2.62-3.64-7.08-0.66-9.9c2.97-2.82,8.19-3.32,11.58-1.11c3.4,2.21,3.7,6.67,0.66,9.9
				C60.82,99.03,55.61,99.52,52.27,96.9z"/>
		</g>
		<g>
			<path class="st1" d="M65.08,109.7c-7.08-0.89-10.66-4.11-7.96-7.16c2.7-3.05,7.9-4.62,11.56-3.49c3.66,1.13,7.24,4.35,7.96,7.16
				C77.36,109.01,72.16,110.58,65.08,109.7z"/>
		</g>
		<g>
			<path class="st1" d="M78.57,104.4c0.74,2.41,3.32,3.65,5.73,2.76c2.42-0.89,6.68-3.37,9.46-5.52c2.79-2.14,3.39-4.75,1.34-5.79
				c-2.05-1.04-6.91-0.53-10.8,1.14C80.42,98.66,77.84,101.99,78.57,104.4z"/>
		</g>
		<g>
			<path class="st1" d="M67.41,92.78c-0.53,2.1,1.1,4.39,3.61,5.09c2.51,0.7,8.35-0.43,12.97-2.51c4.62-2.08,7.54-4.9,6.48-6.26
				c-1.05-1.36-6.45-1.95-12.01-1.31C72.92,88.44,67.94,90.68,67.41,92.78z"/>
		</g>
		<g>
			<path class="st1" d="M58.92,74.65c-1.73,2.22-0.19,5.95,3.43,8.29c3.62,2.34,9.28,3.88,12.57,3.43c3.29-0.45,5.5-2.36,4.92-4.25
				c-0.59-1.88-4.82-5.25-9.41-7.47C65.83,72.43,60.66,72.43,58.92,74.65z"/>
		</g>
		<g>
			<path class="st1" d="M54.13,56.73c-1.87,2.84-1.36,7.55,1.14,10.48c2.5,2.93,6.34,4.13,8.53,2.67c2.2-1.46,1.69-6.17-1.13-10.47
				C59.84,55.1,56,53.9,54.13,56.73z"/>
		</g>
		<g>
			<path class="st1" d="M61.25,55.54c-1.66-3.31-1.48-8.12,0.41-10.69c1.89-2.57,5.82-3.37,8.75-1.77c2.92,1.6,4.49,5.62,3.48,8.93
				c-1.01,3.31-3.59,6.81-5.73,7.77C66.01,60.76,62.91,58.85,61.25,55.54z"/>
		</g>
		<g>
			<path class="st1" d="M71.39,66.56c-3.27-1.83-3.27-4.95,0-6.92c3.27-1.97,7.16-2.27,8.64-0.66c1.49,1.61,1.49,4.73,0,6.92
				C78.55,68.09,74.66,68.39,71.39,66.56z"/>
		</g>
		<g>
			<path class="st1" d="M78.1,70.09c-5.28-2.16-11.07-1.52-12.85,1.4c0,0,0,0,0.99,0.09c0.99,0.09,0.99,0.09,0.99,0.09
				c8.85,4.05,17.07,6.22,18.28,4.84C86.72,75.14,83.38,72.25,78.1,70.09z"/>
		</g>
		<g>
			<path class="st1" d="M86.25,86.13c-2.54-2.24-3.36-5.33-1.82-6.89c1.55-1.55,4.53-1.23,6.63,0.72c2.1,1.95,2.91,5.05,1.81,6.89
				C91.78,88.69,88.79,88.37,86.25,86.13z"/>
		</g>
		<g>
			<path class="st1" d="M96.06,94.93c-1.85-1.77-0.61-6.98,2.75-11.58c3.36-4.6,8.36-7.41,11.11-6.23c2.75,1.17,3.52,4.59,1.73,7.59
				c-1.79,3-5.28,7.25-7.74,9.45C101.44,96.35,97.91,96.7,96.06,94.93z"/>
		</g>
		<g>
			<path class="st1" d="M111.16,76.66c-2.02-1.38-2.28-5.23-0.58-8.55c1.7-3.32,4.45-5.7,6.1-5.28c1.65,0.42,1.91,4.27,0.58,8.55
				C115.93,75.66,113.19,78.04,111.16,76.66z"/>
		</g>
		<g>
			<path class="st1" d="M103.43,76.95c-3.46,3.59-8.38,4.72-10.91,2.51c-2.54-2.21-2.15-6.71,0.87-10
				c3.02-3.29,7.93-4.42,10.91-2.51C107.28,68.87,106.89,73.37,103.43,76.95z"/>
		</g>
		<g>
			<path class="st1" d="M83.27,69.5c-2.46-1.44-2.46-5.31,0-8.58c2.46-3.27,6.98-4.51,10.04-2.74c3.06,1.77,3.06,5.64,0,8.58
				C90.25,69.71,85.73,70.95,83.27,69.5z"/>
		</g>
		<g>
			<path class="st1" d="M101.69,57.06c-1.47,2.56-0.69,6.27,1.74,8.25c2.43,1.97,6.06,1.53,8.07-0.99c2.01-2.52,1.23-6.23-1.74-8.25
				C106.79,54.04,103.16,54.49,101.69,57.06z"/>
		</g>
		<g>
			<path class="st1" d="M117.05,60.67c-1.1,0-2.65-2.89-3.45-6.42c-0.8-3.53-0.47-6.99,0.73-7.7c1.2-0.7,2.75,2.18,3.45,6.42
				C118.47,57.2,118.15,60.67,117.05,60.67z"/>
		</g>
		<g>
			<path class="st1" d="M105.62,52.38c3.76,2.97,5.84,1.41,4.64-3.48c-1.21-4.88-4.28-7.31-6.83-5.4
				C100.87,45.41,101.86,49.4,105.62,52.38z"/>
		</g>
		<g>
			<path class="st1" d="M108.63,40.38c2.05,3.71,4.63,5.72,5.74,4.47c1.11-1.25,0.78-4.72-0.74-7.73c-1.52-3-4.1-5.02-5.74-4.47
				C106.25,33.2,106.59,36.68,108.63,40.38z"/>
		</g>
		<g>
			<path class="st1" d="M91.29,55.68c3.08,2.78,6.84,3.41,8.35,1.41c1.51-2,0.89-5.71-1.37-8.24c-2.27-2.53-6.02-3.16-8.35-1.41
				C87.59,49.2,88.21,52.91,91.29,55.68z"/>
		</g>
		<g>
			<path class="st1" d="M80.11,56.31c0.95,1.15,3.01,1.15,4.58,0c1.57-1.15,1.57-3.94,0-6.21c-1.57-2.27-3.88-4.28-5.13-4.47
				c-1.25-0.19-2.88,1.97-3.63,4.79c-0.75,2.83-0.5,4.84,0.54,4.47C77.53,54.52,79.16,55.16,80.11,56.31z"/>
		</g>
		<g>
			<path class="st1" d="M44.48,28.08c-2.67-3.94-3.27-8.06-1.31-9.16c1.95-1.09,4.75,1.59,6.22,5.97c1.47,4.38,2.06,8.5,1.32,9.16
				C49.95,34.71,47.15,32.03,44.48,28.08z"/>
		</g>
		<g>
			<path class="st1" d="M55.31,12.93c-4,1.32-5.87,6.24-4.16,10.94c1.71,4.7,5.8,4.7,9.1,0c3.3-4.7,5.17-9.62,4.16-10.94
				C63.4,11.62,59.31,11.62,55.31,12.93z"/>
		</g>
		<g>
			<path class="st1" d="M58.24,38.79c-2.37-1.83-2.28-6.21,0.2-9.75c2.47-3.54,6.78-4.91,9.58-3.05c2.8,1.86,2.71,6.25-0.19,9.75
				C64.91,39.24,60.6,40.61,58.24,38.79z"/>
		</g>
		<g>
			<path class="st1" d="M70.96,42.27c-1.63-1.29-0.98-5.62,1.44-9.61c2.42-4,7.28-5.09,10.81-2.42c3.53,2.67,4.35,7,1.82,9.61
				c-2.53,2.62-6.06,4.76-7.85,4.76C75.39,44.61,72.59,43.56,70.96,42.27z"/>
		</g>
		<g>
			<path class="st1" d="M83.24,47.06c-0.79-0.63,1.34-3.49,4.73-6.36c3.39-2.87,6.89-4.18,7.78-2.92c0.89,1.26-1.24,4.12-4.73,6.36
				C87.53,46.37,84.03,47.69,83.24,47.06z"/>
		</g>
		<g>
			<path class="st1" d="M98.14,43.08c-0.69-0.89,0.14-2.7,1.84-4.02c1.7-1.32,3.9-1.86,4.9-1.2c1,0.66,0.17,2.47-1.84,4.02
				C101.03,43.43,98.82,43.97,98.14,43.08z"/>
		</g>
		<g>
			<path class="st1" d="M94.1,34.93c1.73,2.05,4.96,2.33,7.17,0.62c2.21-1.71,5.05-3.79,6.3-4.61c1.25-0.82,0.23-3.31-2.28-5.53
				c-2.51-2.22-6.76-1.82-9.45,0.88C93.15,28.99,92.36,32.88,94.1,34.93z"/>
		</g>
		<g>
			<path class="st1" d="M85.53,30.21c1.55,1.56,4.95,0.18,7.55-3.06c2.6-3.25,2.83-7.35,0.5-9.12c-2.33-1.77-5.73-0.39-7.55,3.06
				C84.2,24.55,83.98,28.65,85.53,30.21z"/>
		</g>
		<g>
			<path class="st1" d="M79.14,16.76c3.79,0.9,7.75,0.59,8.82-0.67c1.06-1.27-1.76-2.81-6.28-3.44c-4.52-0.63-8.48-0.32-8.82,0.67
				C72.52,14.31,75.35,15.86,79.14,16.76z"/>
		</g>
		<g>
			<path class="st1" d="M68.22,11.51c-1.6,0-2.46,1.22-1.91,2.71c0.55,1.49,1.86,2.71,2.9,2.71c1.05,0,1.91-1.22,1.91-2.71
				C71.12,12.73,69.82,11.51,68.22,11.51z"/>
		</g>
		<g>
			<path class="st1" d="M68.23,25.19c-2.2-2.15-3.34-4.55-2.54-5.35c0.8-0.8,2.39-1.45,3.54-1.45c1.15,0,2.95,1.32,4.01,2.93
				c1.06,1.61,1.26,4.02,0.45,5.35C72.89,28,70.43,27.33,68.23,25.19z"/>
		</g>
		<g>
			<path class="st1" d="M79.43,17.76c-3.64-1.57-5.2,0.56-3.48,4.73c1.72,4.17,4.69,5.45,6.61,2.85
				C84.47,22.74,83.07,19.33,79.43,17.76z"/>
		</g>
	</g>
</g>
<g>
	<polygon class="st2" points="114.19,59.26 105.27,54.47 96.36,59.26 87.44,54.47 78.53,59.26 69.62,54.47 60.71,59.26 51.8,54.47 
		42.89,59.26 33.98,54.47 25.07,59.26 16.19,54.47 18.63,62 36.9,109.94 69.63,109.94 102.36,109.94 120.63,62 123,54.47 	"/>
	<g>
		<polygon class="st3" points="25.07,59.26 40.33,109.94 36.9,109.94 16.19,54.47 		"/>
		<polygon class="st3" points="33.98,54.47 46.42,109.94 50.79,109.94 42.89,59.26 		"/>
		<polygon class="st3" points="51.8,54.47 58.02,109.94 61.64,109.94 60.71,59.26 		"/>
		<polygon class="st3" points="69.62,54.47 69.62,109.94 76.86,109.94 78.53,59.26 		"/>
		<polygon class="st3" points="87.44,54.47 83.33,109.94 87.1,109.94 96.36,59.26 		"/>
		<polygon class="st3" points="105.27,54.47 93.8,109.94 97.99,109.94 114.19,59.26 		"/>
	</g>
</g>
</svg>
